name analog
datacolumns 19
datarows 52
range 0.6705 0.6960000000000001
endheader
time	ground_force_vx	ground_force_vy	ground_force_vz	ground_force_px	ground_force_py	ground_force_pz	l_ground_force_vx	l_ground_force_vy	l_ground_force_vz	l_ground_force_px	l_ground_force_py	l_ground_force_pz	ground_torque_x	ground_torque_y	ground_torque_z	l_ground_torque_x	l_ground_torque_y	l_ground_torque_z
0.6705	-0.0	-0.0	-0.0	-4.549736022949219	47.96116638183594	-425.2345886230469	-8.157022476196289	-55.20395660400391	-370.1007080078125	-0.0	-0.0	-0.0	-0.0	-0.0	-0.0	77453.03125	44141.84375	-9691.2734375
0.671	-0.0	-0.0	-0.0	-3.8345115184783936	48.3071403503418	-421.35589599609375	-8.071187019348145	-54.766883850097656	-369.7398376464844	-0.0	-0.0	-0.0	-0.0	-0.0	-0.0	77359.2421875	43862.421875	-9721.2919921875
0.6715	-0.0	-0.0	-0.0	-3.4010469913482666	47.41894912719727	-415.7302856445313	-8.159860610961914	-55.10511016845703	-367.3255920410156	-0.0	-0.0	-0.0	-0.0	-0.0	-0.0	76788.84375	43388.61328125	-9719.4296875
0.672	-0.0	-0.0	-0.0	-3.222823143005371	46.542118072509766	-413.580078125	-7.454824924468994	-54.4929313659668	-367.9873962402344	-0.0	-0.0	-0.0	-0.0	-0.0	-0.0	76687.171875	43313.4921875	-9657.87109375
0.6725	-0.0	-0.0	-0.0	-3.219798803329468	46.87602233886719	-408.3345947265625	-6.743616580963135	-54.49448394775391	-366.2789306640625	-0.0	-0.0	-0.0	-0.0	-0.0	-0.0	76750.9140625	42999.234375	-9306.1533203125
0.673	-0.0	-0.0	-0.0	-2.228580951690674	46.07874298095703	-405.4772033691406	-6.12758207321167	-53.61614990234375	-367.3010559082031	-0.0	-0.0	-0.0	-0.0	-0.0	-0.0	76446.296875	42980.71484375	-9125.3837890625
0.6735	-0.0	-0.0	-0.0	-2.235392808914185	45.809608459472656	-401.925537109375	-5.414682865142822	-53.78791046142578	-366.2731628417969	-0.0	-0.0	-0.0	-0.0	-0.0	-0.0	76904.9296875	42550.2109375	-9035.9365234375
0.674	-0.0	-0.0	-0.0	-2.055337190628052	46.15557861328125	-398.4353942871094	-4.785282611846924	-52.996395111083984	-366.589111328125	-0.0	-0.0	-0.0	-0.0	-0.0	-0.0	76998.375	42578.40234375	-8593.751953125
0.6745	-0.0	-0.0	-0.0	-2.055412530899048	45.36559295654297	-396.9883728027344	-4.171144485473633	-53.16100692749024	-366.9583740234375	-0.0	-0.0	-0.0	-0.0	-0.0	-0.0	77072.46875	42153.765625	-8529.46875
0.675	-0.0	-0.0	-0.0	-2.324904680252075	45.280052185058594	-394.4661865234375	-3.5537185668945312	-52.63621520996094	-367.6497497558594	-0.0	-0.0	-0.0	-0.0	-0.0	-0.0	76980.5234375	41840.2109375	-8438.7158203125
0.6755	-0.0	-0.0	-0.0	-1.9755666255950928	45.09259796142578	-391.3306884765625	-3.810964584350586	-52.284645080566406	-367.64251708984375	-0.0	-0.0	-0.0	-0.0	-0.0	-0.0	77222.4921875	42052.796875	-8436.9677734375
0.676	-0.0	-0.0	-0.0	-1.6987709999084473	44.47418975830078	-390.2638549804688	-3.371009826660156	-51.85580825805664	-367.9913330078125	-0.0	-0.0	-0.0	-0.0	-0.0	-0.0	77588.265625	41730.484375	-8293.6796875
0.6765	-0.0	-0.0	-0.0	-1.7822868824005127	44.11955261230469	-390.5713195800781	-3.80706524848938	-51.75650787353516	-366.97314453125	-0.0	-0.0	-0.0	-0.0	-0.0	-0.0	77522.859375	41311.15625	-8116.64501953125
0.677	-0.0	-0.0	-0.0	-1.770550012588501	44.02651977539063	-385.68792724609375	-3.20119857788086	-51.84104537963867	-367.3374328613281	-0.0	-0.0	-0.0	-0.0	-0.0	-0.0	77659.796875	41447.515625	-8143.3916015625
0.6775	-0.0	-0.0	-0.0	-1.5165786743164062	43.23818588256836	-384.9739990234375	-2.7442140579223637	-51.48382186889648	-367.3380432128906	-0.0	-0.0	-0.0	-0.0	-0.0	-0.0	77384.609375	41183.125	-8049.443359375
0.678	-0.0	-0.0	-0.0	-1.9524970054626465	43.76100540161133	-384.9741516113281	-2.9274559020996094	-51.14810562133789	-368.0135803222656	-0.0	-0.0	-0.0	-0.0	-0.0	-0.0	77953.453125	41063.25	-7876.705078125
0.6785	-0.0	-0.0	-0.0	-1.520688533782959	43.15143203735352	-384.6618041992188	-2.7380013465881348	-51.31090927124024	-370.0691223144531	-0.0	-0.0	-0.0	-0.0	-0.0	-0.0	78089.9921875	40783.44921875	-7815.28125
0.679	-0.0	-0.0	-0.0	-1.5165786743164062	43.22406768798828	-384.2680358886719	-2.923369884490967	-51.74837112426758	-369.0934753417969	-0.0	-0.0	-0.0	-0.0	-0.0	-0.0	78319.03125	40827.171875	-7760.27001953125
0.6795	-0.0	-0.0	-0.0	-1.3424183130264282	43.13272857666016	-384.5960998535156	-2.83666467666626	-51.58607864379883	-370.4744567871094	-0.0	-0.0	-0.0	-0.0	-0.0	-0.0	78504.4609375	40720.0703125	-7841.556640625
0.68	-0.0	-0.0	-0.0	-1.6885242462158203	43.15420913696289	-384.62152099609375	-2.574721097946167	-51.59035873413086	-373.19329833984375	-0.0	-0.0	-0.0	-0.0	-0.0	-0.0	78962.4375	40678.5078125	-7640.00341796875
0.6805	-0.0	-0.0	-0.0	-0.8006983995437622	42.697853088378906	-383.9066162109375	-2.39304518699646	-51.579864501953125	-373.56689453125	-0.0	-0.0	-0.0	-0.0	-0.0	-0.0	78841.109375	40449.0234375	-7693.484375
0.681	-0.0	-0.0	-0.0	-1.155268907546997	43.12125778198242	-386.6789855957031	-2.1377923488616943	-51.65949630737305	-373.9242248535156	-0.0	-0.0	-0.0	-0.0	-0.0	-0.0	79307.8984375	40582.41796875	-7551.49853515625
0.6815	-0.0	-0.0	-0.0	-1.3268640041351318	43.054500579833984	-385.63671875	-2.0447707176208496	-51.48934555053711	-374.63970947265625	-0.0	-0.0	-0.0	-0.0	-0.0	-0.0	79561.4453125	40357.96875	-7457.24853515625
0.682	-0.0	-0.0	-0.0	-1.7796173095703125	43.57100296020508	-386.0166015625	-2.559119701385498	-51.3305778503418	-376.0274658203125	-0.0	-0.0	-0.0	-0.0	-0.0	-0.0	80012.4375	40321.10546875	-7576.93212890625
0.6825	-0.0	-0.0	-0.0	-1.4390387535095217	43.65757369995117	-386.4158020019531	-2.663609981536865	-51.575313568115234	-377.7910461425781	-0.0	-0.0	-0.0	-0.0	-0.0	-0.0	80430.078125	40375.3671875	-7375.4990234375
0.683	-0.0	-0.0	-0.0	-1.5939764976501465	43.32445526123047	-386.3975524902344	-2.66825795173645	-52.09138488769531	-378.80224609375	-0.0	-0.0	-0.0	-0.0	-0.0	-0.0	80973.75	40199.3046875	-7488.1484375
0.6835	-0.0	-0.0	-0.0	-1.4393681287765503	43.1439094543457	-389.1472778320313	-3.023212432861328	-51.49856185913086	-380.887451171875	-0.0	-0.0	-0.0	-0.0	-0.0	-0.0	81279.3515625	40080.734375	-7521.80322265625
0.684	-0.0	-0.0	-0.0	-1.856356859207153	43.57502746582031	-388.507568359375	-3.112035751342773	-51.57748794555664	-382.6513977050781	-0.0	-0.0	-0.0	-0.0	-0.0	-0.0	81882.6328125	40071.7734375	-7432.12158203125
0.6845	-0.0	-0.0	-0.0	-1.077952265739441	43.32479476928711	-389.91064453125	-3.1887412071228027	-51.665775299072266	-383.0574951171875	-0.0	-0.0	-0.0	-0.0	-0.0	-0.0	82408.71875	40177.7421875	-7460.2548828125
0.685	-0.0	-0.0	-0.0	-1.3306472301483154	42.61683654785156	-389.8908081054688	-3.186233758926392	-51.673072814941406	-388.2083435058594	-0.0	-0.0	-0.0	-0.0	-0.0	-0.0	82746.4375	39948.125	-7342.4091796875
0.6855	-0.0	-0.0	-0.0	-0.71368408203125	43.0423698425293	-389.2243957519531	-3.094921350479126	-51.49650192260742	-388.2272033691406	-0.0	-0.0	-0.0	-0.0	-0.0	-0.0	83270.328125	40016.30078125	-7167.64404296875
0.686	-0.0	-0.0	-0.0	-0.3439475893974304	43.057716369628906	-388.9021911621094	-2.6638500690460205	-52.09218597412109	-391.0995178222656	-0.0	-0.0	-0.0	-0.0	-0.0	-0.0	83763.703125	40027.73828125	-7019.21826171875
0.6865	-0.0	-0.0	-0.0	-0.005213975906372	43.31737518310547	-388.1757507324219	-2.676650047302246	-51.75905227661133	-393.4838562011719	-0.0	-0.0	-0.0	-0.0	-0.0	-0.0	84343.0	39969.40625	-6986.099609375
0.687	-0.0	-0.0	-0.0	-0.6218289136886597	43.66596984863281	-389.2147521972656	-2.577796697616577	-52.28385925292969	-395.30084228515625	-0.0	-0.0	-0.0	-0.0	-0.0	-0.0	85033.484375	40098.40234375	-7132.74951171875
0.6875	-0.0	-0.0	-0.0	-1.5923773050308228	43.83607864379883	-387.4490356445313	-2.5910186767578125	-52.36429214477539	-397.991455078125	-0.0	-0.0	-0.0	-0.0	-0.0	-0.0	85437.90625	40144.4765625	-6957.40771484375
0.6880000000000001	-0.0	-0.0	-0.0	-2.143762826919556	44.01958465576172	-389.1828308105469	-2.5025033950805664	-52.19018173217773	-399.7681579589844	-0.0	-0.0	-0.0	-0.0	-0.0	-0.0	86077.875	39638.3671875	-6988.7509765625
0.6885	-0.0	-0.0	-0.0	-2.846491813659668	43.58202362060547	-387.3948974609375	-2.4919865131378174	-52.72268295288086	-400.5087585449219	-0.0	-0.0	-0.0	-0.0	-0.0	-0.0	86187.765625	39922.9453125	-6956.54931640625
0.6890000000000001	-0.0	-0.0	-0.0	-2.8575222492218018	43.133548736572266	-388.144775390625	-2.75003433227539	-52.20627975463867	-402.8779296875	-0.0	-0.0	-0.0	-0.0	-0.0	-0.0	86947.0625	39740.06640625	-6926.93701171875
0.6895	-0.0	-0.0	-0.0	-3.1223678588867188	42.44292068481445	-388.06689453125	-2.9219417572021484	-52.46582794189453	-403.925048828125	-0.0	-0.0	-0.0	-0.0	-0.0	-0.0	87100.328125	39550.88671875	-6869.64111328125
0.6900000000000001	-0.0	-0.0	-0.0	-2.690557718276977	42.44599151611328	-388.4415283203125	-2.672502040863037	-53.06742477416992	-403.95745849609375	-0.0	-0.0	-0.0	-0.0	-0.0	-0.0	87585.3828125	39451.93359375	-6865.904296875
0.6905	-0.0	-0.0	-0.0	-3.110823154449463	42.2622299194336	-386.77777099609375	-2.833081007003784	-52.89905548095703	-406.7393493652344	-0.0	-0.0	-0.0	-0.0	-0.0	-0.0	87910.171875	39216.6171875	-6751.08251953125
0.6910000000000001	-0.0	-0.0	-0.0	-3.2628984451293945	42.342769622802734	-387.4730224609375	-2.4896225929260254	-53.34060287475586	-407.4712219238281	-0.0	-0.0	-0.0	-0.0	-0.0	-0.0	88203.3828125	39282.75390625	-6951.921875
0.6915	-0.0	-0.0	-0.0	-2.405731678009033	41.99811935424805	-386.049072265625	-2.6642210483551025	-53.51140213012695	-407.4599609375	-0.0	-0.0	-0.0	-0.0	-0.0	-0.0	88672.78125	38933.46875	-6721.49755859375
0.6920000000000001	-0.0	-0.0	-0.0	-2.057821273803711	41.98639678955078	-386.6847229003906	-3.093137264251709	-53.60834503173828	-409.4739990234375	-0.0	-0.0	-0.0	-0.0	-0.0	-0.0	88554.0625	38788.16796875	-6836.58203125
0.6925	-0.0	-0.0	-0.0	-1.9626312255859373	42.15868377685547	-385.6365356445313	-3.104877471923828	-54.04695129394531	-410.2414855957031	-0.0	-0.0	-0.0	-0.0	-0.0	-0.0	89107.0546875	38502.6484375	-6751.6611328125
0.6930000000000001	-0.0	-0.0	-0.0	-2.3347508907318115	41.88212966918945	-383.1155700683594	-2.566611766815185	-53.720497131347656	-410.6495361328125	-0.0	-0.0	-0.0	-0.0	-0.0	-0.0	89474.2734375	38291.9765625	-6744.19140625
0.6935	-0.0	-0.0	-0.0	-3.2053918838500977	41.98351287841797	-380.41156005859375	-2.144248485565185	-53.87017822265625	-411.6139221191406	-0.0	-0.0	-0.0	-0.0	-0.0	-0.0	89428.4453125	38144.96875	-6423.65625
0.6940000000000001	-0.0	-0.0	-0.0	-3.743710517883301	41.53163909912109	-379.29046630859375	-1.8721528053283687	-53.78178787231445	-411.6860961914063	-0.0	-0.0	-0.0	-0.0	-0.0	-0.0	89803.75	37588.375	-6249.58251953125
0.6945	-0.0	-0.0	-0.0	-4.192893981933594	41.53161239624024	-376.7929992675781	-1.260571002960205	-53.961463928222656	-413.07080078125	-0.0	-0.0	-0.0	-0.0	-0.0	-0.0	90408.703125	37504.234375	-6213.34912109375
0.6950000000000001	-0.0	-0.0	-0.0	-3.9412457942962646	40.90766525268555	-375.8214111328125	-1.498660922050476	-54.22638702392578	-414.7797546386719	-0.0	-0.0	-0.0	-0.0	-0.0	-0.0	90381.796875	37082.3125	-6099.1181640625
0.6955	-0.0	-0.0	-0.0	-4.794726848602295	40.8914680480957	-374.0816040039063	-1.1373486518859863	-53.62709045410156	-416.1261901855469	-0.0	-0.0	-0.0	-0.0	-0.0	-0.0	90731.6640625	37034.08984375	-5862.49755859375
0.6960000000000001	-0.0	-0.0	-0.0	-4.183106422424316	40.63368606567383	-372.9967651367188	-0.4467601478099823	-53.86026763916016	-416.2265930175781	-0.0	-0.0	-0.0	-0.0	-0.0	-0.0	91081.8515625	36613.17578125	-5773.1103515625
